<svg width="453" height="102" viewBox="0 0 453 102" fill="none" xmlns="http://www.w3.org/2000/svg">
<g clip-path="url(#clip0)">
<path d="M79.7 0H57.4C57.4 18.3 49 35 34.4 46L25.6 52.6L59.8 99.2H87.9L56.4 56.3C71.3 41.5 79.7 21.5 79.7 0Z" fill="#333333"/>
<path d="M22.8 0H0V99.2H22.8V0Z" fill="#333333"/>
<path d="M116 0H94.5V99.2H116V0Z" fill="#333333"/>
<path d="M304.6 28.7C296.4 28.7 288.6 31.2 283.4 38.3V30.6H263V99.2H283.7V63.2C283.7 52.8 290.7 47.7 299.1 47.7C308.1 47.7 313.3 53.1 313.3 63.1V99.3H333.8V55.6C333.8 39.6 321.1 28.7 304.6 28.7Z" fill="#333333"/>
<path d="M181 30.6V35C175.2 31 168.2 28.7 160.6 28.7C140.6 28.7 124.4 44.9 124.4 64.9C124.4 84.9 140.6 101.1 160.6 101.1C168.2 101.1 175.2 98.8 181 94.8V99.2H201.5V30.6H181ZM162.3 82.5C152 82.5 143.7 74.6 143.7 64.9C143.7 55.2 152 47.3 162.3 47.3C172.6 47.3 180.9 55.2 180.9 64.9C180.9 74.6 172.6 82.5 162.3 82.5Z" fill="#333333"/>
<path d="M233.3 39.5V30.6H212.3V99.2H233.4V67.2C233.4 56.4 245.1 50.6 253.2 50.6C253.3 50.6 253.4 50.6 253.4 50.6V30.6C245.1 30.6 237.4 34.2 233.3 39.5Z" fill="#333333"/>
<path d="M397.6 30.6V35C391.8 31 384.8 28.7 377.2 28.7C357.2 28.7 341 44.9 341 64.9C341 84.9 357.2 101.1 377.2 101.1C384.8 101.1 391.8 98.8 397.6 94.8V99.2H418.1V30.6H397.6ZM378.9 82.5C368.6 82.5 360.3 74.6 360.3 64.9C360.3 55.2 368.6 47.3 378.9 47.3C389.2 47.3 397.5 55.2 397.5 64.9C397.6 74.6 389.2 82.5 378.9 82.5Z" fill="#333333"/>
<path d="M434 32.6C434 31.6 433.3 31 432.2 31H430.3V36.2H431.2V34.3H432.2L433 36.2H434L433.1 34.1C433.7 33.8 434 33.3 434 32.6ZM432.2 33.4H431.2V31.8H432.2C432.8 31.8 433.1 32.1 433.1 32.6C433.1 33.1 432.9 33.4 432.2 33.4Z" fill="#333333"/>
<path d="M431.9 28.8C429.2 28.8 427 31 427 33.7C427.1 36.4 429.2 38.6 431.9 38.6C434.6 38.6 436.8 36.4 436.8 33.7C436.8 31 434.6 28.8 431.9 28.8ZM431.9 37.7C429.7 37.7 428 35.9 428 33.7C428 31.5 429.8 29.7 431.9 29.7C434.1 29.7 435.8 31.5 435.8 33.7C435.8 35.9 434 37.7 431.9 37.7Z" fill="#333333"/>
<path d="M440 74.9C432.9 74.9 427.1 80.7 427.1 87.8C427.1 94.9 432.9 100.7 440 100.7C447.1 100.7 452.9 94.9 452.9 87.8C452.9 80.6 447.1 74.9 440 74.9Z" fill="#333333"/>
</g>
<defs>
<clipPath id="clip0">
<rect width="452.9" height="101.1" fill="white"/>
</clipPath>
</defs>
</svg>
