<svg width="601" height="137" viewBox="0 0 601 137" fill="#363636" xmlns="http://www.w3.org/2000/svg">
<path d="M401.9 21.8H369.6C367.9 21.8 366.5 23.1 366.5 24.8V105.8C366.5 107.5 367.8 108.8 369.6 108.8H378.2C379.9 108.8 381.3 107.5 381.3 105.8V71.7C381.3 71.1 381.9 70.5 382.5 70.5H396C397.7 70.5 399.1 69.2 399.1 67.5V61.1C399.1 59.4 397.8 58.1 396 58.1H382.5C381.9 58.1 381.3 57.5 381.3 56.9V35.6C381.3 35 381.9 34.4 382.5 34.4H402C403.7 34.4 405.1 33.1 405.1 31.4V24.9C404.9 23.1 403.6 21.8 401.9 21.8ZM432.3 61.1H427.8C427.2 61.1 426.6 60.5 426.6 59.9V35.1C426.6 34.5 427.2 33.9 427.8 33.9H432.3C438.9 33.9 440.9 36.9 440.9 47.5C440.9 58.1 438.9 61.1 432.3 61.1ZM445.1 71.8C444.9 71.1 445.2 70.4 445.8 70.1C452.5 66.6 455.3 61.4 455.3 47.8C455.3 33 451.9 21.8 434.7 21.8H415C413.3 21.8 411.9 23.1 411.9 24.8V105.8C411.9 107.5 413.2 108.8 415 108.8H423.6C425.3 108.8 426.7 107.5 426.7 105.8V73.9C426.7 73.3 427.3 72.7 427.9 72.7H430.7C431.4 72.7 432 73.2 432.3 73.9L441 106C441.5 107.7 443.1 108.9 444.9 108.9H453.1C454.7 108.9 455.7 107.5 455.3 106L445.1 71.8ZM498.3 96H478.3C477.7 96 477.1 95.4 477.1 94.8V71.2C477.1 70.6 477.7 70 478.3 70H491.2C492.9 70 494.3 68.7 494.3 67V60.9C494.3 59.2 493 57.9 491.2 57.9H478.3C477.7 57.9 477.1 57.3 477.1 56.7V35.8C477.1 35.2 477.7 34.6 478.3 34.6H497.3C499 34.6 500.4 33.3 500.4 31.6V25C500.4 23.3 499.1 22 497.3 22H465.6C463.9 22 462.5 23.3 462.5 25V106C462.5 107.7 463.8 109 465.6 109H498.3C500 109 501.4 107.7 501.4 106V99C501.3 97.3 500 96 498.3 96ZM533.9 60C526.2 52.5 521 47.6 521 40.8C521 36.3 523.2 32.7 528.1 32.7C532.8 32.7 535.2 35.8 535.2 44.6V47.1C535.2 48.3 536.3 49.4 537.5 49.4H546.1C547.6 49.4 548.8 48.2 548.8 46.7V44C548.8 27.7 541 20.4 528.1 20.4C513.2 20.4 506.9 30.4 506.9 41.5C506.9 53.9 514.9 61.9 522.2 68.9C529.7 75.9 535.8 81.3 535.8 89.4C535.8 95.9 531.9 97.7 528 97.7C522.2 97.7 519.9 93.8 519.9 87.1V82.2C519.9 80.5 518.6 79.2 516.8 79.2H509.3C507.6 79.2 506.2 80.5 506.2 82.2V88.2C506.2 101.1 514.5 110.4 528 110.4C540.8 110.4 549.8 101.8 549.8 88.3C549.9 76.3 543 68.8 533.9 60ZM597.9 21.8H589.5C587.8 21.8 586.4 23.1 586.4 24.8V57.2C586.4 57.8 585.8 58.4 585.2 58.4H572.1C571.5 58.4 570.9 57.8 570.9 57.2V24.8C570.9 23.1 569.6 21.8 567.8 21.8H559.4C557.7 21.8 556.3 23.1 556.3 24.8V105.8C556.3 107.5 557.6 108.8 559.4 108.8H567.8C569.5 108.8 570.9 107.5 570.9 105.8V72.4C570.9 71.8 571.5 71.2 572.1 71.2H585.2C585.8 71.2 586.4 71.8 586.4 72.4V105.8C586.4 107.5 587.7 108.8 589.5 108.8H597.9C599.6 108.8 601 107.5 601 105.8V24.8C601 23.1 599.7 21.8 597.9 21.8ZM342 95.9C341.1 97.6 340.1 98.7 339.1 99.4C338.6 99.7 337.8 100 336.9 100C336.1 100 335.4 99.7 334.9 99.2C327.5 91.2 327.5 60.8 334.8 48.2C337.3 44 340.5 43.5 341.7 43.5C341.9 43.5 342.1 43.5 342.3 43.5C344.2 43.7 345.8 46.5 346.2 47.3C351.8 58.6 348.5 84.6 342 95.9ZM292.7 59C292.7 32.4 297 18 300.2 14.6C300.6 14.2 300.9 14 301.2 14C302 14 303.2 16.2 303.3 22.3C303.3 22.3 303.3 22.9 303.3 23C303.3 31.3 302.3 39.8 300.4 48.4C298.1 58.7 294 67.4 293.1 69.1C292.8 65.9 292.7 62.5 292.7 59ZM262 16.6C262.5 16.1 262.9 15.9 263.2 15.9C263.3 15.9 263.5 15.9 263.9 16.3C265.1 17.7 266.4 22.4 265.1 31.5C261.6 56.6 254.4 67.4 254.4 67.4C253.7 38.7 257.8 20.9 262 16.6ZM207 69.8V69.6C209.9 50.1 214.3 43.1 217.5 43.1C218.6 43.1 219.5 44 220 44.8C223.6 50.1 223.5 58.5 219.8 64.4C216.8 69 212.4 70 209.1 70C208.4 70 207.7 70 207.1 69.9L207 69.8ZM348.1 37C345.3 35.5 342.6 34.8 340 34.8C337.3 34.8 334.6 35.6 331.8 37.2C324.1 41.6 319.4 51.7 317 67.1C313.9 82 306 96.5 302.1 96.5C298.8 96.5 296.2 90.7 294.6 82.4C302.6 67.5 308.5 47.8 310.3 30.5C310.6 27.4 310.8 24.5 310.8 21.8V21.5C310.5 7.60002 304.5 2.40002 299 2.10002C298.9 2.10002 298.8 2.10002 298.7 2.10002C296.1 2.10002 293.4 3.70001 290.9 6.70001C286 12.6 282.3 23.1 280.5 36.2C279.6 42.8 279.2 49.9 279.3 57.4C279.1 67.6 280 76.8 281.8 84.4C282 85.7 282.2 87 282.4 88.3V88.4L282.3 88.5C279 92.5 275.6 95.6 272.5 97.4L271.9 97.8L271.5 98.1L271.4 98L270.9 98.3C269.5 99 268.1 99.3 266.9 99.3H266.8C261.7 99.2 257.9 92.6 255.7 79.8V79.7L255.9 79.3C264 65.1 268.2 50.8 268.3 50.2L268.5 49.3C274 31.1 274.1 15.8 268.7 8.20001C266.8 5.50001 264.3 4.00001 261.5 3.90001C261.4 3.90001 261.2 3.90001 261.1 3.90001C257.7 3.90001 254.6 5.50001 251.9 8.70001C241.7 20.6 238.4 50.8 243.6 85.7V85.8L243.5 85.9C239.9 90.1 236.1 93.5 232.1 95.9C227.1 98.9 223.1 99.5 221.2 99.7C220.9 99.7 220.7 99.7 220.4 99.7C217.4 99.7 214.8 98.6 212.8 96.5C209.3 92.9 207.2 85.7 207.2 76.2V76H207.4C209.3 76.4 211.2 76.6 212.9 76.6C219.4 76.6 224.9 74.2 228.7 69.7C232 65.9 233.8 60.5 233.8 55.1C233.8 42.5 225.6 36.8 217.9 36.8C214.4 36.8 209.1 37.9 204.2 43.2C199.7 48 196.5 55.2 194.6 64.6V64.8L194.4 64.7C192.3 63.6 189 61.9 184.6 60.1H184.5V59.6C184.7 50.2 185 40.3 185.3 30.6C185.5 23.9 185.7 17 185.9 10.3C186 7.30002 185.3 5.00002 183.7 3.30002C181.3 0.700018 177.4 0.200012 174.6 0.200012C173.4 0.200012 172.5 0.300009 171.9 0.400009C171.2 0.500009 170.7 1.10002 170.8 1.80002C171.7 9.30002 172 31.6 171.6 55.9V56.1H171.4C169.6 55.7 167.9 55.4 166.2 55.2L165.7 55.1C161.7 54.5 158 54.2 154.6 54.1C153.7 54.1 152.8 54.1 151.9 54.1C151.7 54.1 151.1 54.1 150.6 54.1V53.9C151.1 39.8 151.9 26.6 151.9 26.5C152 23.4 151.3 21 149.6 19.2C147.1 16.5 143 16 140.1 16C138.9 16 138 16.1 137.4 16.2C136.6 16.3 136.1 16.9 136.2 17.7C136.7 23 137 39.3 136.9 55.5V55.6H136.8C131.2 56.8 126.5 58.4 124.3 59.2C123.1 59.6 121.4 60.4 119.2 61.4C115.5 63.1 115.4 67.2 116.3 70.2C116.9 72.2 118.2 73.4 118.3 73.6C118.7 73.9 119.1 74.1 119.6 74.1C119.8 74.1 120.1 74.1 120.3 74C120.8 73.8 124 72.4 125 72C125.3 71.8 125.7 71.7 126.1 71.5C126.4 71.4 126.6 71.3 126.9 71.2L127.5 71C128 70.8 128.5 70.6 129.1 70.4C130 70.1 130.9 69.7 131.8 69.3C133.2 68.7 134.6 68.1 136.4 67.5L136.6 67.4V67.7C136.5 69.8 136.5 71.8 136.4 73.8C136 84.6 135.3 118.5 135.3 119.9C135 126.4 136 130.8 138.4 133.3C141.1 136.1 145.1 136.1 148 136.1H149.8C150.2 136.1 150.5 135.9 150.8 135.7C151 135.4 151.1 135.1 151.1 134.7C149.5 122 149.9 88.6 150.2 74.8C150.2 71.8 150.2 68.4 150.3 64.6V64.4H150.5C152.2 64.2 153.7 64 155.2 63.9C157.5 63.7 159.9 63.6 162.4 63.6C163.9 63.6 165.6 63.6 167.2 63.7H167.5C167.8 63.7 168.1 63.7 168.3 63.7L169 63.8C169.7 63.9 170.5 64 171.3 64.1H171.5L171.4 66.5C171.2 75.4 170.9 87.7 170.6 95.4C170.3 101.6 171.3 105.8 173.6 108.2C176 110.7 179.3 110.9 182.8 110.9H184.4C184.8 110.9 185.2 110.7 185.4 110.4C185.6 110.1 185.8 109.8 185.7 109.4C184.7 101.7 184.3 86.1 184.5 67.5V67.2L184.7 67.3C189.1 68.9 192.4 70.5 193.6 71.1L193.7 71.2V71.3C193 84.5 195.9 95.4 202 101.9C206.1 106.3 211.4 108.6 217.3 108.6C225.4 108.6 233.2 105.4 240.4 99.1C243 96.9 244.8 94.9 246 93.6L246.2 93.4L246.4 93.9C249.9 103.3 256.1 108.7 263.3 108.7C263.4 108.7 263.4 108.7 263.6 108.7C264.2 108.7 264.9 108.7 265.6 108.6C265.7 108.6 265.7 108.6 265.8 108.6C268 108.3 270.3 107.7 272.6 106.7L272.7 106.6C273.3 106.3 273.8 106.1 274.4 105.8C274.8 105.6 275.2 105.4 275.7 105.1C275.8 105 276.2 104.8 276.3 104.8C280.4 102.2 283.4 99.1 285.3 96.9L285.5 96.7L285.6 97C287.2 100.4 289.2 103.2 291.5 105.1C299.5 113.3 309.9 108.9 318.4 86.3C320.2 96.4 324 106.2 333.6 108.2C335 108.6 336.5 108.8 338.1 108.8C339.7 108.8 341.3 108.6 342.9 108.2C349.7 106.3 357.6 95.3 359.8 75.1C361 61 358.9 42.7 348.1 37Z" fill="#363636"/>
<path d="M93.7 30.5C93.7 30.7 94.9 31.7 95.4 32.7C96 33.7 96.5 34.5 96.6 35.5C96.7 36.1 96.5 36.4 96.2 36.4C94.5 36.4 86.5 24.1 70.5 19.7C61.5 17.2 49 16.3 38.7 19.8C29.8 22.8 22 28.4 16 35.5C9.19999 43.5 4.79999 53.1 3.99999 63.6C3.59999 67.9 3.99998 72.4 3.19998 76.7C2.99998 77.8 2.59999 78.8 2.29999 79.8C2.09999 80.3 0.599992 84.8 3.59999 90.9C6.49999 96.7 15.4 97.6 16.2 95C17 92.6 18.2 92.1 19.1 92.1C20.4 92.1 21.2 93.4 21.9 93.7C67.4 114.7 101.6 63.3 101.6 63.3C102.2 59.8 102.5 56.3 102.5 52.8C102.5 49.6 102.4 46.4 102.8 43.2C103.2 40.2 103.3 37.3 101.9 34.6C100.9 32.7 99.1 31.6 97.1 31C96.6 30.7 93.7 29.7 93.7 30.5Z" fill="#363636"/>
<path d="M19.2 92C18.2 92 17 92.5 16.3 94.9C15.5 97.5 6.60001 96.6 3.70001 90.8C0.600011 84.7 2.20001 80.2 2.40001 79.6C2.30001 79.9 2.20001 80 2.20001 80.2C2.30001 80 2.30001 79.8 2.40001 79.6C2.30001 79.8 2.30001 80 2.20001 80.2C2.00001 80.8 1.80002 81.3 1.60002 81.9C1.50002 82.2 1.40001 82.5 1.40001 82.8C1.40001 82.9 1.40002 83 1.30002 83.1C1.20002 83.4 1.20002 83.8 1.10002 84.1C1.10002 83.8 1.20002 83.4 1.30002 83.1C0.900017 85 0.800011 87 1.20001 88.9C2.20001 94.2 6.10001 96.9 11 98.4C14.2 99.3 17.3 100.2 20.2 101.8C22.8 103.3 25.4 104.9 28.2 106.1C40.2 111.2 54.2 110.8 66.3 106.3C78.7 101.7 89.3 92.9 95.5 81.2C98.5 75.6 100.5 69.5 101.5 63.2C101.5 63.2 67.3 114.6 21.8 93.6C21.3 93.3 20.5 92 19.2 92Z" fill="#363636"/>
<path d="M40.1 36.7C39.6 36.9 35.4 30.9 37.5 29.7C51.3 22 72.6 26.7 83 33.3C83.8 33.8 84.2 34.1 84.2 34.2C85.4 36.4 60.8 28.9 40.1 36.7Z" fill="#FFFFFE"/>
</svg>
