<svg width="1024" height="197" viewBox="0 0 1024 197" fill="none" xmlns="http://www.w3.org/2000/svg">
<path d="M425.102 55.0579C417.426 50.8358 406.013 48.7819 390.209 48.7762C368.586 48.7842 348.513 53.2698 340.917 56.1012C339.201 56.6515 337.366 58.1322 337.336 60.6663L337.341 61.2252L339.469 71.9791L339.522 72.1792C340.188 74.3688 342.012 75.3507 343.672 75.3507H343.681C344.215 75.3279 344.631 75.2249 345.018 75.1263L348.617 74.2859C358.036 71.9276 372.273 68.3658 388.171 68.3658C397.814 68.3658 404.298 69.2063 408.644 71.0415C415.695 73.7113 415.739 78.2693 415.81 85.8145V97.1C415.003 97.0857 413.639 97.0714 411.54 97.0714C403.753 97.0714 388.443 97.433 373.385 99.8471C350.408 103.376 331.396 108.876 331.516 140.534C331.524 180.723 368.8 180.798 386.713 180.836H386.715C398.876 180.833 410.096 179.038 417.423 177.523C434.146 173.639 438.415 168.329 438.191 151.713V84.8854C438.215 74.6933 438.245 62.0084 425.102 55.0579H425.102ZM415.921 158.292C407.021 161.18 397.284 162.642 386.97 162.642V163.581L386.957 162.642C370.477 162.517 354.384 160.631 354.364 139.611C354.47 122.893 363.39 120.903 374.681 118.382L375.464 118.208C385.509 116.061 410.723 115.658 415.924 115.598L415.922 158.292H415.921ZM624.528 84.8854V151.713C624.753 168.329 620.482 173.639 603.761 177.523C596.433 179.038 585.213 180.833 573.052 180.836H573.051C555.137 180.798 517.862 180.723 517.852 140.534C517.733 108.876 536.745 103.376 559.723 99.8471C574.78 97.433 590.09 97.0714 597.876 97.0714C599.977 97.0714 601.339 97.0857 602.148 97.1V85.8145C602.076 78.2693 602.032 73.7113 594.981 71.0415C590.635 69.2063 584.152 68.3658 574.508 68.3658C558.609 68.3658 544.374 71.9276 534.955 74.2859L531.356 75.1263C530.968 75.225 530.552 75.3279 530.016 75.3507H530.01C528.349 75.3507 526.525 74.3688 525.859 72.1792L525.806 71.9791L523.678 61.2252L523.673 60.6663C523.703 58.1322 525.538 56.6515 527.254 56.1012C534.849 53.2698 554.923 48.7848 576.546 48.7762C592.35 48.7819 603.763 50.8358 611.439 55.0579C624.582 62.0084 624.553 74.6933 624.529 84.8854H624.528ZM602.262 115.598C597.059 115.658 571.846 116.061 561.801 118.208L561.019 118.382C549.727 120.903 540.807 122.893 540.702 139.611C540.722 160.631 556.815 162.517 573.295 162.642L573.308 163.581V162.642C583.621 162.642 593.359 161.18 602.259 158.292L602.262 115.598H602.262ZM962.067 48.7762C910.155 48.8462 905.753 82.9545 905.705 114.925C905.753 146.777 910.155 180.766 962.067 180.836H962.07C1013.94 180.766 1018.36 146.869 1018.44 114.92C1018.38 81.4895 1013.98 48.8462 962.067 48.7762H962.067ZM962.068 162.176C930.583 162.038 929.001 145.876 928.786 114.93C929.001 83.8149 930.58 67.5712 962.065 67.434C993.558 67.5712 995.136 83.8149 995.351 114.916C995.136 145.876 993.554 162.038 962.068 162.176V162.176ZM868.905 176.132L867.549 176.475C860.29 178.316 850.343 180.836 832.912 180.836H832.911H832.873C784.83 180.766 775.401 156.531 775.348 114.692C775.407 66.7036 790.618 48.8405 831.474 48.7762C845.887 48.7762 855.818 50.64 862.943 52.3608L862.9 13.7089C862.84 12.0138 863.607 9.79409 867.619 9.02943L880.38 5.77496H881.076C884.007 5.84791 885.045 8.46057 885.051 10.6745V155.905C885.248 165.075 884.169 172.943 868.906 176.132H868.905ZM862.911 70.9614C858.651 69.878 846.758 67.201 833.365 67.201C808.767 67.4268 798.451 74.1087 798.194 114.929C798.482 159.751 811.829 162.174 833.585 162.409L833.598 163.348V162.409C847.139 162.409 858.756 159.587 862.9 158.445L862.911 70.9614V70.9614ZM748.235 177.808H736.822C733.765 177.804 731.459 175.494 731.452 172.439V86.2804C731.245 71.7061 726.89 67.6526 711.196 67.434C693.441 67.434 675.469 71.889 669.542 73.5041V172.436C669.536 175.546 667.376 177.804 664.406 177.808H652.762C649.703 177.804 647.395 175.494 647.391 172.439V75.8024C647.221 66.858 648.061 60.6749 660.784 56.5572C672.965 52.3508 696.278 48.7848 711.675 48.7762C741.024 48.8133 753.56 59.4014 753.6 84.1837V172.436C753.596 175.494 751.288 177.804 748.235 177.808ZM489.737 180.137H489.747C496.306 180.008 501.157 178.712 503.057 176.579C503.732 175.823 504.043 174.95 503.959 174.088C503.915 173.379 503.915 173.379 502.115 164.951L502.072 164.749C501.682 162.545 500.11 161.543 498.813 161.543C498.692 161.543 498.573 161.55 498.638 161.559C498.638 161.559 496.99 161.479 495.363 161.479H495.347C490.672 161.33 486.797 160.65 486.717 153.808V10.676C486.713 8.28906 485.274 5.84071 482.511 5.77496L481.696 5.78182L468.914 9.05773C466.736 9.28069 464.469 10.8286 464.566 13.7057V154.275C464.591 170.922 473.525 180.106 489.727 180.136H489.737L489.737 180.137ZM309.205 177.808H217.626C214.569 177.804 212.26 175.494 212.255 172.439V161.259C212.192 158.519 213.069 157.298 214.757 155.207L287.65 70.4626H216.229C213.171 70.4557 210.862 68.1472 210.858 65.0928V57.1746C210.863 54.1188 213.171 51.8105 216.228 51.8048H308.739C311.795 51.8105 314.103 54.1188 314.109 57.1732V68.5845C314.153 70.647 313.439 72.3964 311.792 74.2316L238.715 159.148H309.204C312.261 159.157 314.569 161.463 314.575 164.519V172.436C314.569 175.494 312.261 177.804 309.205 177.808Z" fill="#231F20"/>
<path d="M28.7535 37.6836C12.9257 37.6836 4.78738 80.9006 5.63494 121.475C5.61225 121.469 5.58617 121.481 5.56348 121.475C6.40961 157.088 14.2849 191.224 29.8969 191.224C89.8079 191.224 158.067 134.724 158.067 114.471C158.067 109.405 152.906 99.6556 145.99 91.9604C145.981 91.9656 145.963 91.9551 145.954 91.9604C145.484 91.4144 144.985 90.8698 144.489 90.3167C123.147 66.505 78.8711 37.6836 28.7535 37.6836Z" fill="#363636"/>
<path d="M5.62356 121.473C50.6372 132.044 98.6938 120.144 145.251 92.3962C145.485 92.2562 145.72 92.1161 145.954 91.9746C145.484 91.4286 145.002 90.8784 144.506 90.3252C123.164 66.5135 78.8611 37.6864 28.7435 37.6864C12.9157 37.6864 4.776 80.8991 5.62356 121.473V121.473ZM145.954 91.9746C145.965 91.97 145.973 91.9643 145.981 91.9589L145.954 91.9746Z" fill="#363636"/>
<path d="M5.57642 121.463C6.42255 157.077 14.3007 191.225 29.9127 191.225C89.8237 191.225 158.077 134.741 158.077 114.489C158.077 109.422 152.898 99.6541 145.981 91.9589C99.1826 120.028 50.8416 132.109 5.57642 121.463Z" fill="#363636"/>
</svg>
