<svg width="142" height="24" viewBox="0 0 142 24" fill="none" xmlns="http://www.w3.org/2000/svg">
<g clip-path="url(#clip0)">
<path d="M55.3494 2.15025C55.3494 0.961494 56.3089 0 57.49 0C58.6751 0 59.6383 0.961494 59.6383 2.15025C59.6383 3.33747 58.6751 4.29998 57.49 4.29998C56.3089 4.29998 55.3494 3.33747 55.3494 2.15025Z" fill="#333333"/>
<path d="M89.1884 16.4524C89.1884 15.2632 90.1474 14.3007 91.3285 14.3007C92.5132 14.3007 93.4762 15.2632 93.4762 16.4524C93.4762 17.6386 92.5132 18.6022 91.3285 18.6022C90.1474 18.6022 89.1884 17.6386 89.1884 16.4524Z" fill="#333333"/>
<path d="M20.1507 15.5231C18.3036 15.5231 17.0201 14.0561 17.0201 11.9599C17.0201 9.86416 18.3036 8.39821 20.1507 8.39821C22.0084 8.39821 23.3062 9.86416 23.3062 11.9599C23.3062 14.0892 22.0354 15.5231 20.1507 15.5231ZM20.1507 5.2666C16.243 5.2666 13.407 8.0823 13.407 11.9599C13.407 15.8375 16.243 18.6526 20.1507 18.6526C24.0731 18.6526 26.9209 15.8375 26.9209 11.9599C26.9209 8.0823 24.0731 5.2666 20.1507 5.2666Z" fill="#333333"/>
<path d="M51.1957 12.2946C51.0438 12.0088 50.8697 11.7668 50.6842 11.5747L50.566 11.4493L50.6903 11.3301C50.8697 11.141 51.0531 10.9168 51.2299 10.657L54.6784 5.53054H50.4921L47.9011 9.54059C47.7544 9.75561 47.4582 9.86416 47.0149 9.86416H46.4244V2.28274C46.4244 0.766361 45.4797 0.559998 44.4591 0.559998H42.712L42.715 18.4555H46.4244V13.0875H46.7719C47.1948 13.0875 47.4827 13.1364 47.6147 13.3662L49.6611 17.2285C50.2327 18.2766 50.8023 18.4555 51.8739 18.4555H54.7166L52.5995 14.9534L51.1957 12.2946" fill="#333333"/>
<path d="M69.2037 5.23804C67.3169 5.23804 66.1129 6.07622 65.4383 6.78499L65.2131 7.01276L65.1336 6.70297C64.9354 5.94375 64.2673 5.52592 63.262 5.52592H61.5995L61.61 18.4509H65.2942V12.4938C65.2942 11.9114 65.3699 11.406 65.5239 10.9449C65.934 9.54923 67.0779 8.68149 68.5077 8.68149C69.6577 8.68149 70.1072 9.28835 70.1072 10.8567V16.4861C70.1072 17.8246 70.7262 18.4509 72.0658 18.4509H73.8191L73.8131 10.2305C73.8131 6.96435 72.2202 5.23804 69.2047 5.23804" fill="#333333"/>
<path d="M57.539 5.53156H55.7927L55.8047 15.5251H55.8035V18.4539H57.6675C57.691 18.4539 57.7098 18.4565 57.7332 18.4565L58.6014 18.4539H59.4656V18.4488H59.4716L59.4791 7.4938C59.4791 6.17206 58.8471 5.53157 57.5403 5.53157" fill="#333333"/>
<path d="M34.6219 15.5231C32.775 15.5231 31.4889 14.0561 31.4889 11.9599C31.4889 9.86416 32.775 8.39821 34.6219 8.39821C36.4757 8.39821 37.7771 9.86416 37.7771 11.9599C37.7771 14.0892 36.5068 15.5231 34.6219 15.5231ZM34.6219 5.2666C30.7103 5.2666 27.8737 8.0823 27.8737 11.9599C27.8737 15.8375 30.7103 18.6526 34.6219 18.6526C38.5403 18.6526 41.3927 15.8375 41.3927 11.9599C41.3927 8.0823 38.5403 5.2666 34.6219 5.2666Z" fill="#333333"/>
<path d="M113.593 15.5231C111.747 15.5231 110.46 14.0561 110.46 11.9599C110.46 9.86416 111.747 8.39821 113.593 8.39821C115.447 8.39821 116.749 9.86416 116.749 11.9599C116.749 14.0892 115.478 15.5231 113.593 15.5231ZM113.593 5.2666C109.683 5.2666 106.846 8.0823 106.846 11.9599C106.846 15.8375 109.683 18.6526 113.593 18.6526C117.512 18.6526 120.364 15.8375 120.364 11.9599C120.364 8.0823 117.512 5.2666 113.593 5.2666Z" fill="#333333"/>
<path d="M81.5815 14.9544C79.5673 14.9544 78.8504 13.197 78.8504 11.5502C78.8504 10.8246 79.0338 8.45982 81.3879 8.45982C82.5578 8.45982 84.117 8.79509 84.117 11.6719C84.117 14.3852 82.7372 14.9544 81.5815 14.9544V14.9544ZM86.0298 5.49687C85.3306 5.49687 84.7927 5.77558 84.5231 6.28461L84.4212 6.4823L84.2505 6.33404C83.6558 5.8194 82.5895 5.20898 80.858 5.20898C77.413 5.20898 75.0936 7.79642 75.0936 11.647C75.0936 15.493 77.4935 18.1808 80.9273 18.1808C82.1002 18.1808 83.0271 17.9072 83.7618 17.3507L84.0462 17.1372V17.4965C84.0462 19.2228 82.9297 20.1751 80.906 20.1751C79.9225 20.1751 79.0272 19.9356 78.4286 19.7186C77.6469 19.4826 77.1888 19.6778 76.8719 20.462L76.5794 21.1855L76.1657 22.2423L76.422 22.3789C77.7172 23.0662 79.4033 23.4764 80.9273 23.4764C84.065 23.4764 87.7286 21.8703 87.7286 17.3507L87.742 5.49687H86.0304" fill="#333333"/>
<path d="M6.42978 15.3748L3.43071 15.3718V11.7862C3.43071 11.0198 3.72778 10.6214 4.3845 10.5296H6.42978C7.88959 10.5296 8.83277 11.4504 8.83382 12.9398C8.83277 14.4684 7.91304 15.3738 6.42978 15.3748V15.3748ZM3.43071 5.70221V4.75855C3.43071 3.93259 3.7802 3.53974 4.54715 3.48929H6.08178C7.39791 3.48929 8.18621 4.27704 8.18621 5.5947C8.18621 6.59951 7.64659 7.77195 6.13017 7.77195H3.43071V5.70221V5.70221ZM10.26 9.28069L9.71786 8.97599L10.1912 8.57141C10.7415 8.09806 11.6643 7.03415 11.6643 5.19574C11.6643 2.38308 9.48247 0.567596 6.10568 0.567596H2.25214V0.566467H1.81333C0.812198 0.603165 0.0112017 1.41739 0 2.42475V18.3901H1.76853C1.77301 18.3912 1.7745 18.3901 1.77599 18.3912L6.18185 18.3901C9.93562 18.3901 12.3585 16.3468 12.3585 13.1821C12.3585 11.4782 11.5754 10.0214 10.2593 9.28058" fill="#333333"/>
<path d="M136.822 5.27985C135.293 5.27985 133.815 5.99574 132.867 7.19621L132.599 7.53454L132.39 7.15595C131.708 5.91166 130.533 5.27985 128.9 5.27985C127.188 5.27985 126.039 6.23522 125.506 6.80335L125.157 7.18144L125.022 6.68412C124.827 5.96823 124.19 5.57383 123.225 5.57383H121.676L121.661 18.4488H125.179V12.7655C125.179 12.2676 125.241 11.7749 125.366 11.2598C125.702 9.88657 126.625 8.40943 128.177 8.55718C129.134 8.6489 129.601 9.38824 129.601 10.8165V18.4488H133.144V12.7655C133.144 12.1433 133.202 11.6776 133.342 11.2103C133.628 9.89931 134.591 8.55515 136.088 8.55515C137.171 8.55515 137.572 9.16863 137.572 10.8165V16.5666C137.572 17.8674 138.152 18.4488 139.452 18.4488H141.108L141.111 10.2295C141.111 6.94603 139.666 5.27985 136.822 5.27985Z" fill="#333333"/>
<path d="M104.809 13.9787C104.798 13.9914 103.284 15.5878 101.291 15.5878C99.4749 15.5878 97.6401 14.4734 97.6401 11.9859C97.6401 9.83816 99.0627 8.33706 101.099 8.33706C101.76 8.33706 102.512 8.574 102.63 8.97245L102.647 9.03972C102.918 9.94313 103.739 9.99154 103.901 9.99154L105.828 9.99351V8.30848C105.828 6.08588 103.001 5.27979 101.099 5.27979C97.0307 5.27979 94.0789 8.1123 94.0789 12.0128C94.0789 15.9118 96.9986 18.7402 101.025 18.7402C104.517 18.7402 106.417 16.4443 106.435 16.4213L106.536 16.297L105.009 13.7646L104.809 13.9786" fill="#333333"/>
</g>
<defs>
<clipPath id="clip0">
<rect width="141.111" height="23.4464" fill="white"/>
</clipPath>
</defs>
</svg>
